<svg xmlns="http://www.w3.org/2000/svg" id="Capa_2" viewBox="0 0 476.98 87.93"><defs><style>.cls-1{fill:#fff;}</style></defs><g id="Capa_1-2"><g><path class="cls-1" d="m357.84,31.37c-2.97-2.23-6.61-3.02-10.26-2.96-4.15.08-8.4,1.18-12.27,2.62-3.38,1.25-6.89,3.55-7.21,7.48-.26,3.15,4.62,3.83,4.88.67.19-2.35,3.19-3.27,5.08-3.9,1.08-.36,2.18-.69,3.28-.98-1.23,9.72-3.05,19.36-5.47,28.86-.33,1.29.89,2.61,2.11,2.77,1.44.2,2.44-.81,2.77-2.11,2.5-9.8,4.37-19.74,5.59-29.78.03-.23.03-.45,0-.65.27-.03.54-.05.81-.07,2.75-.17,5.63.32,7.83,2.06,1.96,1.54,3.13,3.9,3.6,6.31,2.21,11.42-7.67,21.25-17.86,24.2-6.65,1.93-13.77,1.49-20.43-.09-3.08-.73-3.73,4.15-.67,4.88,14.11,3.34,30.67.71,39.48-11.91,3.79-5.42,5.77-12.35,4.1-18.89-.85-3.32-2.59-6.44-5.36-8.52"></path><path class="cls-1" d="m385.8,55.46c-3.24,1.06-6.48,2.12-9.72,3.18-.93.31-3.18,1.48-4.13.89-.96-.59-.7-2.21-.47-3.08.6-2.31,1.66-4.59,2.68-6.82,3.33-.72,6.66-1.44,9.98-2.16,3.07-.67,2.45-5.56-.65-4.88-2.32.5-4.63,1-6.95,1.5.94-2.26,1.88-4.52,2.82-6.77.06-.15.11-.29.14-.44,3.65-.76,7.31-1.52,10.96-2.28,3.08-.64,2.46-5.53-.65-4.88-6.01,1.25-12.01,2.5-18.02,3.75-3.08.64-2.46,5.53.65,4.88l1.26-.26c-1.01,2.43-2.02,4.85-3.03,7.28-1.32.29-2.63.57-3.95.85-3.07.66-2.45,5.55.65,4.88l.88-.19c-1.25,2.8-2.39,5.81-1.7,8.69.97,4.06,4.61,5.6,8.44,4.53,4.27-1.18,8.47-2.74,12.68-4.12,3.01-.99,1.12-5.53-1.89-4.55"></path><path class="cls-1" d="m408.5,49.7c-1.51,2.27-3.83,4.06-6.18,3.98-2.22-.07-4.16-1.27-5.24-3.14-3.81-6.58,3.34-14.75,10.21-14.6,1.33.03,2.58-.68,2.77-2.11.17-1.2-.77-2.74-2.11-2.77-9.07-.2-16.95,7.02-16.73,16.29.15,6.34,5.55,11.57,11.93,11.2,3.85-.22,7.15-2.7,9.23-5.83,1.74-2.63-2.13-5.68-3.88-3.04"></path><path class="cls-1" d="m421.38,26.41c-2.45.74-2.81,3.31-2.65,5.51.08.99,1.12,1.7,2.06,1.57.04,0,.07-.01.11-.02.26.11.55.19.84.22,1.98.24,3.46-2.24,3.65-3.99.26-2.27-1.84-3.96-4.01-3.3"></path><path class="cls-1" d="m417.9,37.94c-.8,4.4-1.59,8.81-2.39,13.21-.56,3.12,4.31,3.78,4.88.67l2.39-13.21c.57-3.12-4.31-3.78-4.88-.67"></path><path class="cls-1" d="m438.68,45.4c-2.69.95-5.44,2.19-8.23,2.77-.57.11-.42.11-.48-.13-.11-.45.13-1.12.21-1.57.31-1.53.69-3.04,1.08-4.55,1.58-6.12,3.74-12.1,6.31-17.87,1.29-2.9-3.24-4.83-4.53-1.94-3.34,7.5-5.95,15.36-7.67,23.39-.72,3.34.12,7.12,4.1,7.58,1.83.21,3.64-.51,5.33-1.11,1.92-.68,3.84-1.35,5.76-2.03,2.99-1.05,1.1-5.6-1.89-4.55"></path><path class="cls-1" d="m461.02,27.48c.04-.99-.6-1.86-1.49-2.37-4.86-2.74-10.67.79-13.3,5.02-3,4.85-4.31,12.1-1.16,17.2,3,4.87,9.76,5.5,14.72,3.74,4.77-1.69,8.82-6.11,9.07-11.31.25-5.42-2.83-10.41-7.83-12.28m2.65,13.55c-1.21,3.89-5.62,6.28-9.54,6.04-11.48-.69-4.35-20.59,2.9-17.69-.1,1.35.88,2.27,2.12,2.6,3.65.95,5.58,5.65,4.52,9.05"></path><path class="cls-1" d="m476.39,40.8c-.37-.5-1.01-.87-1.63-.95-.03,0-.05,0-.08,0-.6-.21-1.23-.23-1.84.01-.61.24-1.07.68-1.4,1.24-.35.6-.47,1.21-.42,1.9.08,1.07.83,2.08,1.82,2.48,1.24.5,2.71.08,3.5-1,.8-1.1.86-2.57.04-3.68"></path><g><g><path class="cls-1" d="m41.42,0C18.54,0,0,18.55,0,41.42s18.54,41.42,41.42,41.42,41.41-18.55,41.41-41.42S64.29,0,41.42,0m26.13,18.05c-.04.11-.07.23-.11.34-2.57.02-17.14,4.81-18.87,8.07,5.56-1.53,13.43-1.92,14.61.23-.07.11-.15.22-.22.33-4.03-.74-17.83,6.92-21.67,6.15,4.98,4.61,14.37-.69,16.19.55-7.17,7.71-15.24,13.26-15.24,13.26-3.51-1.46-11.74-2.5-16.93,7.89-3.29,6.58-2.69,10.01-2.69,10.01-3.85.53-8.39,6.32-8.39,6.32,0,0,4.07-13.37,19.22-34.92,15.78-22.45,33.08-25.88,34.6-26.14-2.01,1.17-8.15,3.28-14.67,10.56,6.14-3.64,12.27-3.26,14.19-2.66"></path><path class="cls-1" d="m154.75,10.69l-7.91,7.81-7.91-7.81,7.91-7.82,7.91,7.82Zm-13.98,12.5l11.68-1.1v47.81l-11.68.74V23.2Z"></path><polygon class="cls-1" points="162.31 70.64 162.31 6.83 173.98 5.36 173.98 69.91 162.31 70.64"></polygon><path class="cls-1" d="m191.25,55.47c-8-3.4-11.04-7.54-11.04-15.35,0-10.94,9.48-18.39,21.33-18.39,5.33,0,9.56.55,11.31.55,4.6,0,11.03-1.47,16.27-3.12l-2.29,9.93h-7.17c2.94,3.31,4.69,6.71,4.69,11.41,0,6.52-4.04,11.31-9.93,13.7,6.53,3.12,10.76,7.91,10.76,15.35,0,12.69-12.23,18.39-22.06,18.39-10.67,0-17.48-2.67-23.63-9.38l7.17-7.44c4.97,5.15,7.91,7.08,15.27,7.08,4.68,0,11.12-2.85,11.12-9.1,0-7.17-5.6-10.48-12.41-10.48-4.04,0-7.9,1.46-11.31,3.4l1.94-6.53Zm11.03-5.6c5.33,0,10.39-4.14,10.39-9.75s-5.06-9.66-10.39-9.66-10.39,4.14-10.39,9.66,5.06,9.75,10.39,9.75"></path><path class="cls-1" d="m255.41,21.73c13.8,0,25.94,10.75,25.94,24.83s-12.13,24.82-25.94,24.82-25.93-10.75-25.93-24.82,12.14-24.83,25.93-24.83m0,38.98c7.92,0,14.9-6.16,14.9-14.16s-6.98-14.16-14.9-14.16-14.89,6.16-14.89,14.16,6.99,14.16,14.89,14.16"></path><path class="cls-1" d="m134.35,13.15c-9.44-2.23-15.56,2.01-15.56,10.19h11.86v10.11h-11.86v36.66l-11.68.74v-37.4h-7.36l2.57-10.11h4.79c.27-6.62,1.53-22.83,23.1-21.04l4.14,10.85Z"></path></g><path class="cls-1" d="m274.96,17.31c0-3.16,2.6-5.68,5.75-5.68s5.71,2.52,5.71,5.68-2.6,5.71-5.71,5.71-5.75-2.52-5.75-5.71Zm5.75-4.86c-2.75,0-4.83,2.11-4.83,4.86s2.08,4.89,4.83,4.89,4.79-2.09,4.79-4.89-2.06-4.86-4.79-4.86Zm-1.3,8.22h-.86v-6.73h2.57c1.52,0,2.24.65,2.24,1.9s-.78,1.71-1.7,1.87l1.95,2.95h-1.01l-1.86-2.94h-1.33v2.94Zm0-5.97v2.27h1.57c1.17,0,1.52-.43,1.52-1.16,0-.9-.79-1.11-1.56-1.11h-1.54Z"></path></g></g></g></svg>