<svg xmlns="http://www.w3.org/2000/svg" viewBox="0 0 600 450" role="img" aria-label="Lápices de colores">
  <rect width="600" height="450" fill="#f6f5f3"/>
  <path d="M58 342c120-86 250-88 484 0v108H58z" fill="#e9eef2"/>
  <g transform="translate(95 80) rotate(-10)">
    <rect x="0" y="70" width="58" height="245" rx="14" fill="#d43d34"/>
    <path d="M0 70 29 15 58 70z" fill="#6b4a33"/>
    <path d="M19 35h20" stroke="#2b2725" stroke-width="9" stroke-linecap="round"/>
  </g>
  <g transform="translate(215 52) rotate(3)">
    <rect x="0" y="70" width="58" height="260" rx="14" fill="#2368a2"/>
    <path d="M0 70 29 15 58 70z" fill="#6b4a33"/>
    <path d="M19 35h20" stroke="#2b2725" stroke-width="9" stroke-linecap="round"/>
  </g>
  <g transform="translate(340 85) rotate(12)">
    <rect x="0" y="70" width="58" height="235" rx="14" fill="#f4c431"/>
    <path d="M0 70 29 15 58 70z" fill="#6b4a33"/>
    <path d="M19 35h20" stroke="#2b2725" stroke-width="9" stroke-linecap="round"/>
  </g>
  <g transform="translate(445 92) rotate(-3)">
    <rect x="0" y="70" width="58" height="225" rx="14" fill="#747b82"/>
    <path d="M0 70 29 15 58 70z" fill="#6b4a33"/>
    <path d="M19 35h20" stroke="#2b2725" stroke-width="9" stroke-linecap="round"/>
  </g>
</svg>
